<svg width="322" height="109" viewBox="0 0 322 109" fill="none" xmlns="http://www.w3.org/2000/svg">
<path d="M41.6141 67.1774C41.6141 66.5803 41.6141 66.2615 41.6141 65.9421C41.6076 52.6189 41.6006 39.2952 41.5946 25.972C41.5946 25.6521 41.5946 25.3316 41.6131 25.0127C41.6493 24.4031 41.9581 24.0299 42.5771 24.0107C43.2639 23.9893 43.9523 24.0063 44.6396 24.0085C47.7388 24.0184 50.8391 24.0035 53.9377 24.0442C64.6088 24.183 73.0283 28.7077 79.1443 37.5446C81.8855 41.5051 83.4692 45.9496 84.0178 50.7783C85.6373 65.035 77.39 78.3571 64.5546 83.1446C61.4121 84.3168 58.1667 84.9693 54.8124 84.9753C45.0838 84.9923 35.3546 84.9934 25.626 85C24.176 85.0011 23.9995 84.8321 24 83.3471C24.0054 68.1915 24.02 53.0354 24.0108 37.8799C24.0108 37.0276 24.2795 36.4064 24.8709 35.8088C28.4879 32.154 32.0734 28.4667 35.6801 24.802C35.8616 24.6176 36.1454 24.5381 36.3821 24.4096C36.453 24.6714 36.5857 24.9332 36.5857 25.1944C36.5754 40.0882 36.5565 54.9819 36.5299 69.8757C36.5256 72.2744 36.6334 72.3957 38.9705 72.3897C43.9642 72.3765 48.9591 72.4462 53.9507 72.3496C60.4594 72.2239 65.6243 69.4691 69.1113 63.8216C73.2103 57.1825 72.6356 48.8999 67.5389 43.0126C64.3748 39.3577 60.3164 37.1884 55.4521 36.7988C54.3547 36.711 54.1933 36.902 54.1923 38.0072C54.1885 43.0395 54.1793 48.0723 54.2004 53.1046C54.2047 54.0984 53.896 54.8749 53.1919 55.5807C49.6632 59.1203 46.1659 62.6923 42.653 66.2483C42.3805 66.5244 42.0756 66.7669 41.6141 67.1774Z" fill="#084734"/>
<path d="M93.7336 35.32C95.1423 36.6 96.7822 37.23 98.6534 37.23C100.525 37.23 102.227 36.59 103.573 35.32C104.982 33.99 105.686 32.43 105.686 30.66C105.686 28.89 104.982 27.33 103.573 26C102.227 24.67 100.588 24 98.6534 24C96.7191 24 95.1423 24.67 93.7336 26C92.3881 27.33 91.7153 28.88 91.7153 30.66C91.7153 32.44 92.3881 33.99 93.7336 35.32Z" fill="#084734"/>
<path d="M104.372 42.23H93.0396V83.84H104.372V42.23Z" fill="#084734"/>
<path d="M129.928 52.5398H139.851V42.2198H129.928V30.5698L118.595 33.8198V42.2298H110.953V52.5498H118.595V69.8598C118.595 75.5698 120.172 79.5398 123.336 81.7598C126.553 83.9798 132.061 84.6698 139.851 83.8398V74.0998C137.685 74.2098 135.866 74.2398 134.405 74.1798C132.945 74.0698 131.829 73.6798 131.073 73.0098C130.316 72.3398 129.928 71.2898 129.928 69.8498V52.5398Z" fill="#084734"/>
<path d="M184.117 45.6401C181.016 42.5901 177.064 41.0601 172.259 41.0601C166.288 41.0601 161.926 43.0001 159.172 46.8901V25.5801H147.84V83.8301H159.172V61.3601C159.172 57.9201 160.055 55.3401 161.811 53.6201C163.566 51.9001 165.91 51.0401 168.833 51.0401C171.471 51.0401 173.574 51.7901 175.161 53.2901C176.738 54.7301 177.536 56.8401 177.536 59.6101V83.8301H188.869V58.2801C188.869 52.9001 187.292 48.6801 184.128 45.6301L184.117 45.6401Z" fill="#084734"/>
<path fill-rule="evenodd" clip-rule="evenodd" d="M219.691 74.7598C216.18 74.7598 213.278 73.6798 210.997 71.5098C208.716 69.2898 207.57 66.4598 207.57 63.0198C207.57 59.5798 208.716 56.7798 210.997 54.6098C213.278 52.3898 216.18 51.2798 219.691 51.2798C223.201 51.2798 226.103 52.3898 228.384 54.6098C230.729 56.7698 231.895 59.5798 231.895 63.0198C231.895 66.4598 230.729 69.2898 228.384 71.5098C226.103 73.6698 223.201 74.7598 219.691 74.7598ZM243.228 42.2198H231.895V47.1298C228.5 43.0798 223.727 41.0498 217.578 41.0498C211.428 41.0498 206.687 43.1898 202.472 47.4598C198.319 51.6798 196.238 56.8598 196.238 63.0198C196.238 69.1798 198.319 74.3898 202.472 78.6698C206.687 82.8898 211.722 84.9898 217.578 84.9898C223.727 84.9898 228.5 82.9598 231.895 78.9098V83.8198H243.228V42.2298V42.2198Z" fill="#084734"/>
<path d="M270.023 43.3901C267.626 44.7201 265.892 46.7202 264.841 49.3802V42.2202H253.508V83.8301H264.841V63.9402C264.841 59.9502 266.187 57.0901 268.877 55.3701C271.632 53.6501 274.733 52.9801 278.192 53.3701V41.3901C275.206 41.3901 272.483 42.0601 270.023 43.3901Z" fill="#084734"/>
<path d="M285.518 35.32C286.926 36.6 288.566 37.23 290.438 37.23C292.309 37.23 294.012 36.59 295.357 35.32C296.766 33.99 297.47 32.43 297.47 30.66C297.47 28.89 296.766 27.33 295.357 26C294.012 24.67 292.372 24 290.438 24C288.503 24 286.926 24.67 285.518 26C284.172 27.33 283.5 28.88 283.5 30.66C283.5 32.44 284.172 33.99 285.518 35.32Z" fill="#084734"/>
<path d="M296.146 42.23H284.813V83.84H296.146V42.23Z" fill="#084734"/>
</svg>
